<mxfile host="app.diagrams.net" modified="2024-03-22T22:07:44.934Z" agent="Mozilla/5.0 (Windows NT 10.0; Win64; x64) AppleWebKit/537.36 (KHTML, like Gecko) Chrome/122.0.0.0 Safari/537.36" etag="2tPmN0mxqyU9lI2H-jRh" version="24.0.7" type="device">
  <diagram name="Page-1" id="DfhtDSw-eCT8_bgUpAXu">
    <mxGraphModel dx="929" dy="1980" grid="1" gridSize="10" guides="1" tooltips="1" connect="1" arrows="1" fold="1" page="1" pageScale="1" pageWidth="850" pageHeight="1100" math="0" shadow="0">
      <root>
        <mxCell id="0" />
        <mxCell id="1" parent="0" />
        <mxCell id="hu2omngPFM__ERk7QBpw-80" style="edgeStyle=orthogonalEdgeStyle;rounded=0;orthogonalLoop=1;jettySize=auto;html=1;" edge="1" parent="1" source="hu2omngPFM__ERk7QBpw-1" target="hu2omngPFM__ERk7QBpw-3">
          <mxGeometry relative="1" as="geometry" />
        </mxCell>
        <mxCell id="hu2omngPFM__ERk7QBpw-1" value="Start" style="ellipse;whiteSpace=wrap;html=1;" vertex="1" parent="1">
          <mxGeometry x="365" y="-80" width="120" height="80" as="geometry" />
        </mxCell>
        <mxCell id="hu2omngPFM__ERk7QBpw-4" style="edgeStyle=orthogonalEdgeStyle;rounded=0;orthogonalLoop=1;jettySize=auto;html=1;" edge="1" parent="1" source="hu2omngPFM__ERk7QBpw-3">
          <mxGeometry relative="1" as="geometry">
            <mxPoint x="425" y="190" as="targetPoint" />
          </mxGeometry>
        </mxCell>
        <mxCell id="hu2omngPFM__ERk7QBpw-3" value="Room B" style="rounded=1;whiteSpace=wrap;html=1;" vertex="1" parent="1">
          <mxGeometry x="365" y="59" width="120" height="60" as="geometry" />
        </mxCell>
        <mxCell id="hu2omngPFM__ERk7QBpw-7" value="Call Black Box Processor GenerateWord" style="rounded=1;whiteSpace=wrap;html=1;" vertex="1" parent="1">
          <mxGeometry x="367" y="190" width="120" height="60" as="geometry" />
        </mxCell>
        <mxCell id="hu2omngPFM__ERk7QBpw-83" style="edgeStyle=orthogonalEdgeStyle;rounded=0;orthogonalLoop=1;jettySize=auto;html=1;" edge="1" parent="1" source="hu2omngPFM__ERk7QBpw-11">
          <mxGeometry relative="1" as="geometry">
            <mxPoint x="425" y="510" as="targetPoint" />
          </mxGeometry>
        </mxCell>
        <mxCell id="hu2omngPFM__ERk7QBpw-11" value="Print:&amp;nbsp;&lt;div&gt;Underscore&amp;nbsp;&lt;/div&gt;" style="rounded=1;whiteSpace=wrap;html=1;" vertex="1" parent="1">
          <mxGeometry x="365" y="340" width="120" height="70" as="geometry" />
        </mxCell>
        <mxCell id="hu2omngPFM__ERk7QBpw-19" value="Call Black Box GuessLetter&amp;nbsp;" style="rounded=1;whiteSpace=wrap;html=1;" vertex="1" parent="1">
          <mxGeometry x="365" y="700" width="120" height="60" as="geometry" />
        </mxCell>
        <mxCell id="hu2omngPFM__ERk7QBpw-24" style="edgeStyle=orthogonalEdgeStyle;rounded=0;orthogonalLoop=1;jettySize=auto;html=1;" edge="1" parent="1" source="hu2omngPFM__ERk7QBpw-23">
          <mxGeometry relative="1" as="geometry">
            <mxPoint x="180" y="1083" as="targetPoint" />
          </mxGeometry>
        </mxCell>
        <mxCell id="hu2omngPFM__ERk7QBpw-25" style="edgeStyle=orthogonalEdgeStyle;rounded=0;orthogonalLoop=1;jettySize=auto;html=1;" edge="1" parent="1" source="hu2omngPFM__ERk7QBpw-23">
          <mxGeometry relative="1" as="geometry">
            <mxPoint x="690" y="1083" as="targetPoint" />
          </mxGeometry>
        </mxCell>
        <mxCell id="hu2omngPFM__ERk7QBpw-26" style="edgeStyle=orthogonalEdgeStyle;rounded=0;orthogonalLoop=1;jettySize=auto;html=1;" edge="1" parent="1" source="hu2omngPFM__ERk7QBpw-23">
          <mxGeometry relative="1" as="geometry">
            <mxPoint x="428" y="1083" as="targetPoint" />
          </mxGeometry>
        </mxCell>
        <mxCell id="hu2omngPFM__ERk7QBpw-23" value="Guess Letter?&lt;div&gt;(-1,0,1)&lt;/div&gt;" style="rhombus;whiteSpace=wrap;html=1;" vertex="1" parent="1">
          <mxGeometry x="368" y="923" width="120" height="80" as="geometry" />
        </mxCell>
        <mxCell id="hu2omngPFM__ERk7QBpw-27" value="-1&amp;nbsp;&lt;div&gt;Guessed Incorrect Letter&lt;/div&gt;" style="text;strokeColor=none;align=center;fillColor=none;html=1;verticalAlign=middle;whiteSpace=wrap;rounded=0;" vertex="1" parent="1">
          <mxGeometry x="200" y="923" width="110" height="40" as="geometry" />
        </mxCell>
        <mxCell id="hu2omngPFM__ERk7QBpw-28" value="0&amp;nbsp;&lt;div&gt;&amp;nbsp;Guessed Letter which reveals the Word&lt;/div&gt;" style="text;strokeColor=none;align=center;fillColor=none;html=1;verticalAlign=middle;whiteSpace=wrap;rounded=0;" vertex="1" parent="1">
          <mxGeometry x="510" y="923" width="130" height="40" as="geometry" />
        </mxCell>
        <mxCell id="hu2omngPFM__ERk7QBpw-29" value="1&amp;nbsp;&lt;div&gt;&amp;nbsp;Guessed Correct Letter&lt;/div&gt;" style="text;strokeColor=none;align=center;fillColor=none;html=1;verticalAlign=middle;whiteSpace=wrap;rounded=0;" vertex="1" parent="1">
          <mxGeometry x="425" y="1013" width="110" height="40" as="geometry" />
        </mxCell>
        <mxCell id="hu2omngPFM__ERk7QBpw-35" style="edgeStyle=orthogonalEdgeStyle;rounded=0;orthogonalLoop=1;jettySize=auto;html=1;" edge="1" parent="1" source="hu2omngPFM__ERk7QBpw-31">
          <mxGeometry relative="1" as="geometry">
            <mxPoint x="690" y="1213" as="targetPoint" />
          </mxGeometry>
        </mxCell>
        <mxCell id="hu2omngPFM__ERk7QBpw-31" value="Display:&amp;nbsp;&lt;div&gt;&quot;Congratulations you won&quot;&lt;/div&gt;" style="rounded=1;whiteSpace=wrap;html=1;" vertex="1" parent="1">
          <mxGeometry x="630" y="1083" width="120" height="60" as="geometry" />
        </mxCell>
        <mxCell id="hu2omngPFM__ERk7QBpw-34" style="edgeStyle=orthogonalEdgeStyle;rounded=0;orthogonalLoop=1;jettySize=auto;html=1;" edge="1" parent="1" source="hu2omngPFM__ERk7QBpw-32">
          <mxGeometry relative="1" as="geometry">
            <mxPoint x="428" y="1213" as="targetPoint" />
          </mxGeometry>
        </mxCell>
        <mxCell id="hu2omngPFM__ERk7QBpw-32" value="Display:&lt;div&gt;Correct Letter&lt;/div&gt;" style="rounded=1;whiteSpace=wrap;html=1;" vertex="1" parent="1">
          <mxGeometry x="368" y="1083" width="120" height="60" as="geometry" />
        </mxCell>
        <mxCell id="hu2omngPFM__ERk7QBpw-36" style="edgeStyle=orthogonalEdgeStyle;rounded=0;orthogonalLoop=1;jettySize=auto;html=1;" edge="1" parent="1" source="hu2omngPFM__ERk7QBpw-33">
          <mxGeometry relative="1" as="geometry">
            <mxPoint x="180" y="1213" as="targetPoint" />
          </mxGeometry>
        </mxCell>
        <mxCell id="hu2omngPFM__ERk7QBpw-33" value="Display :&amp;nbsp;&lt;div&gt;Incorrect Letter&lt;/div&gt;" style="rounded=1;whiteSpace=wrap;html=1;" vertex="1" parent="1">
          <mxGeometry x="120" y="1083" width="120" height="60" as="geometry" />
        </mxCell>
        <mxCell id="hu2omngPFM__ERk7QBpw-37" value="Add 6 min in explore time&lt;div&gt;(explore_time += 6)&lt;/div&gt;" style="rounded=1;whiteSpace=wrap;html=1;" vertex="1" parent="1">
          <mxGeometry x="120" y="1213" width="120" height="60" as="geometry" />
        </mxCell>
        <mxCell id="hu2omngPFM__ERk7QBpw-40" style="edgeStyle=orthogonalEdgeStyle;rounded=0;orthogonalLoop=1;jettySize=auto;html=1;" edge="1" parent="1" source="hu2omngPFM__ERk7QBpw-38">
          <mxGeometry relative="1" as="geometry">
            <mxPoint x="428" y="1393" as="targetPoint" />
          </mxGeometry>
        </mxCell>
        <mxCell id="hu2omngPFM__ERk7QBpw-38" value="Add 3 min in explore time&lt;div&gt;(explore_time += 3)&amp;nbsp;&lt;/div&gt;" style="rounded=1;whiteSpace=wrap;html=1;" vertex="1" parent="1">
          <mxGeometry x="368" y="1213" width="120" height="60" as="geometry" />
        </mxCell>
        <mxCell id="hu2omngPFM__ERk7QBpw-48" style="edgeStyle=orthogonalEdgeStyle;rounded=0;orthogonalLoop=1;jettySize=auto;html=1;" edge="1" parent="1" source="hu2omngPFM__ERk7QBpw-39">
          <mxGeometry relative="1" as="geometry">
            <mxPoint x="690" y="1857.2105263157896" as="targetPoint" />
          </mxGeometry>
        </mxCell>
        <mxCell id="hu2omngPFM__ERk7QBpw-39" value="Add 2 min in explore time&amp;nbsp;&lt;div&gt;(explore_time += 2)&lt;/div&gt;" style="rounded=1;whiteSpace=wrap;html=1;" vertex="1" parent="1">
          <mxGeometry x="630" y="1213" width="120" height="60" as="geometry" />
        </mxCell>
        <mxCell id="hu2omngPFM__ERk7QBpw-42" style="edgeStyle=orthogonalEdgeStyle;rounded=0;orthogonalLoop=1;jettySize=auto;html=1;" edge="1" parent="1" source="hu2omngPFM__ERk7QBpw-41">
          <mxGeometry relative="1" as="geometry">
            <mxPoint x="430" y="1523" as="targetPoint" />
          </mxGeometry>
        </mxCell>
        <mxCell id="hu2omngPFM__ERk7QBpw-41" value="Check how many letter has been guessed?" style="rounded=1;whiteSpace=wrap;html=1;" vertex="1" parent="1">
          <mxGeometry x="370" y="1393" width="120" height="60" as="geometry" />
        </mxCell>
        <mxCell id="hu2omngPFM__ERk7QBpw-45" style="edgeStyle=orthogonalEdgeStyle;rounded=0;orthogonalLoop=1;jettySize=auto;html=1;" edge="1" parent="1" source="hu2omngPFM__ERk7QBpw-44">
          <mxGeometry relative="1" as="geometry">
            <mxPoint x="430" y="1683" as="targetPoint" />
          </mxGeometry>
        </mxCell>
        <mxCell id="hu2omngPFM__ERk7QBpw-46" value="YES" style="edgeLabel;html=1;align=center;verticalAlign=middle;resizable=0;points=[];" vertex="1" connectable="0" parent="hu2omngPFM__ERk7QBpw-45">
          <mxGeometry x="-0.1373" relative="1" as="geometry">
            <mxPoint as="offset" />
          </mxGeometry>
        </mxCell>
        <mxCell id="hu2omngPFM__ERk7QBpw-44" value="Guessed Letter = 8" style="rhombus;whiteSpace=wrap;html=1;" vertex="1" parent="1">
          <mxGeometry x="370" y="1523" width="120" height="80" as="geometry" />
        </mxCell>
        <mxCell id="hu2omngPFM__ERk7QBpw-53" style="edgeStyle=orthogonalEdgeStyle;rounded=0;orthogonalLoop=1;jettySize=auto;html=1;entryX=1;entryY=0.5;entryDx=0;entryDy=0;" edge="1" parent="1" source="hu2omngPFM__ERk7QBpw-47">
          <mxGeometry relative="1" as="geometry">
            <mxPoint x="1031" y="790" as="targetPoint" />
            <Array as="points">
              <mxPoint x="30" y="1950" />
              <mxPoint x="30" y="-200" />
              <mxPoint x="1150" y="-200" />
              <mxPoint x="1150" y="790" />
            </Array>
          </mxGeometry>
        </mxCell>
        <mxCell id="hu2omngPFM__ERk7QBpw-47" value="Display:&amp;nbsp;&lt;div&gt;You run out of letter guessed&lt;/div&gt;" style="rounded=1;whiteSpace=wrap;html=1;" vertex="1" parent="1">
          <mxGeometry x="370" y="1683" width="120" height="60" as="geometry" />
        </mxCell>
        <mxCell id="hu2omngPFM__ERk7QBpw-50" value="Explore Room B :&lt;div&gt;END&lt;/div&gt;" style="ellipse;whiteSpace=wrap;html=1;" vertex="1" parent="1">
          <mxGeometry x="632" y="1857" width="120" height="80" as="geometry" />
        </mxCell>
        <mxCell id="hu2omngPFM__ERk7QBpw-59" style="edgeStyle=orthogonalEdgeStyle;rounded=0;orthogonalLoop=1;jettySize=auto;html=1;" edge="1" parent="1">
          <mxGeometry relative="1" as="geometry">
            <mxPoint x="971" y="773" as="targetPoint" />
            <mxPoint x="971.090909090909" y="713" as="sourcePoint" />
          </mxGeometry>
        </mxCell>
        <mxCell id="hu2omngPFM__ERk7QBpw-61" style="edgeStyle=orthogonalEdgeStyle;rounded=0;orthogonalLoop=1;jettySize=auto;html=1;" edge="1" parent="1" source="hu2omngPFM__ERk7QBpw-60">
          <mxGeometry relative="1" as="geometry">
            <mxPoint x="971" y="893" as="targetPoint" />
          </mxGeometry>
        </mxCell>
        <mxCell id="hu2omngPFM__ERk7QBpw-60" value="Call Black Box GuessWord process" style="rounded=1;whiteSpace=wrap;html=1;" vertex="1" parent="1">
          <mxGeometry x="911" y="773" width="120" height="60" as="geometry" />
        </mxCell>
        <mxCell id="hu2omngPFM__ERk7QBpw-64" style="edgeStyle=orthogonalEdgeStyle;rounded=0;orthogonalLoop=1;jettySize=auto;html=1;" edge="1" parent="1" source="hu2omngPFM__ERk7QBpw-62">
          <mxGeometry relative="1" as="geometry">
            <mxPoint x="1190" y="934" as="targetPoint" />
          </mxGeometry>
        </mxCell>
        <mxCell id="hu2omngPFM__ERk7QBpw-73" style="edgeStyle=orthogonalEdgeStyle;rounded=0;orthogonalLoop=1;jettySize=auto;html=1;" edge="1" parent="1" source="hu2omngPFM__ERk7QBpw-62">
          <mxGeometry relative="1" as="geometry">
            <mxPoint x="971" y="1063" as="targetPoint" />
          </mxGeometry>
        </mxCell>
        <mxCell id="hu2omngPFM__ERk7QBpw-62" value="Guess Word?&lt;div&gt;(0,1)&lt;/div&gt;" style="rhombus;whiteSpace=wrap;html=1;" vertex="1" parent="1">
          <mxGeometry x="911" y="894" width="120" height="80" as="geometry" />
        </mxCell>
        <mxCell id="hu2omngPFM__ERk7QBpw-65" value="1&lt;div&gt;guess_Word == word&lt;/div&gt;" style="text;html=1;align=center;verticalAlign=middle;resizable=0;points=[];autosize=1;strokeColor=none;fillColor=none;" vertex="1" parent="1">
          <mxGeometry x="1033" y="899" width="140" height="40" as="geometry" />
        </mxCell>
        <mxCell id="hu2omngPFM__ERk7QBpw-67" style="edgeStyle=orthogonalEdgeStyle;rounded=0;orthogonalLoop=1;jettySize=auto;html=1;" edge="1" parent="1" source="hu2omngPFM__ERk7QBpw-66">
          <mxGeometry relative="1" as="geometry">
            <mxPoint x="1250" y="1033" as="targetPoint" />
          </mxGeometry>
        </mxCell>
        <mxCell id="hu2omngPFM__ERk7QBpw-68" value="YES" style="edgeLabel;html=1;align=center;verticalAlign=middle;resizable=0;points=[];" vertex="1" connectable="0" parent="hu2omngPFM__ERk7QBpw-67">
          <mxGeometry x="-0.2542" y="1" relative="1" as="geometry">
            <mxPoint as="offset" />
          </mxGeometry>
        </mxCell>
        <mxCell id="hu2omngPFM__ERk7QBpw-66" value="8&amp;nbsp;&lt;div&gt;guessed letter?&lt;/div&gt;" style="rhombus;whiteSpace=wrap;html=1;" vertex="1" parent="1">
          <mxGeometry x="1190" y="894" width="120" height="80" as="geometry" />
        </mxCell>
        <mxCell id="hu2omngPFM__ERk7QBpw-70" style="edgeStyle=orthogonalEdgeStyle;rounded=0;orthogonalLoop=1;jettySize=auto;html=1;" edge="1" parent="1" source="hu2omngPFM__ERk7QBpw-69">
          <mxGeometry relative="1" as="geometry">
            <mxPoint x="1250" y="1163" as="targetPoint" />
          </mxGeometry>
        </mxCell>
        <mxCell id="hu2omngPFM__ERk7QBpw-69" value="Display:&lt;div&gt;&quot;Congratulations You won&quot;&amp;nbsp;&lt;/div&gt;" style="rounded=1;whiteSpace=wrap;html=1;" vertex="1" parent="1">
          <mxGeometry x="1190" y="1033" width="120" height="60" as="geometry" />
        </mxCell>
        <mxCell id="hu2omngPFM__ERk7QBpw-72" style="edgeStyle=orthogonalEdgeStyle;rounded=0;orthogonalLoop=1;jettySize=auto;html=1;entryX=1;entryY=0.5;entryDx=0;entryDy=0;" edge="1" parent="1" source="hu2omngPFM__ERk7QBpw-71" target="hu2omngPFM__ERk7QBpw-50">
          <mxGeometry relative="1" as="geometry">
            <Array as="points">
              <mxPoint x="1250" y="1897" />
            </Array>
          </mxGeometry>
        </mxCell>
        <mxCell id="hu2omngPFM__ERk7QBpw-71" value="Add 5 min in explore time&amp;nbsp;&lt;div&gt;explore_time += 5&lt;/div&gt;" style="rounded=1;whiteSpace=wrap;html=1;" vertex="1" parent="1">
          <mxGeometry x="1190" y="1163" width="120" height="60" as="geometry" />
        </mxCell>
        <mxCell id="hu2omngPFM__ERk7QBpw-74" value="&lt;div&gt;0&lt;/div&gt;&lt;div&gt;guess_Word != word&lt;/div&gt;" style="text;html=1;align=center;verticalAlign=middle;resizable=0;points=[];autosize=1;strokeColor=none;fillColor=none;" vertex="1" parent="1">
          <mxGeometry x="975" y="993" width="130" height="40" as="geometry" />
        </mxCell>
        <mxCell id="hu2omngPFM__ERk7QBpw-76" style="edgeStyle=orthogonalEdgeStyle;rounded=0;orthogonalLoop=1;jettySize=auto;html=1;" edge="1" parent="1" source="hu2omngPFM__ERk7QBpw-75">
          <mxGeometry relative="1" as="geometry">
            <mxPoint x="971" y="1183" as="targetPoint" />
          </mxGeometry>
        </mxCell>
        <mxCell id="hu2omngPFM__ERk7QBpw-75" value="Display:&lt;div&gt;&quot;Sorry You lose&quot;&amp;nbsp;&lt;/div&gt;" style="rounded=1;whiteSpace=wrap;html=1;" vertex="1" parent="1">
          <mxGeometry x="911" y="1063" width="120" height="60" as="geometry" />
        </mxCell>
        <mxCell id="hu2omngPFM__ERk7QBpw-78" style="edgeStyle=orthogonalEdgeStyle;rounded=0;orthogonalLoop=1;jettySize=auto;html=1;entryX=0.5;entryY=0;entryDx=0;entryDy=0;exitX=0.404;exitY=0.995;exitDx=0;exitDy=0;exitPerimeter=0;" edge="1" parent="1" source="hu2omngPFM__ERk7QBpw-77">
          <mxGeometry relative="1" as="geometry">
            <mxPoint x="988" y="1244" as="sourcePoint" />
            <mxPoint x="690" y="1858" as="targetPoint" />
            <Array as="points">
              <mxPoint x="980" y="1243" />
              <mxPoint x="980" y="1694" />
              <mxPoint x="690" y="1694" />
            </Array>
          </mxGeometry>
        </mxCell>
        <mxCell id="hu2omngPFM__ERk7QBpw-77" value="Add 25 min in explore time&amp;nbsp;&lt;div&gt;explore_time += 25&lt;/div&gt;" style="rounded=1;whiteSpace=wrap;html=1;" vertex="1" parent="1">
          <mxGeometry x="920" y="1183" width="120" height="60" as="geometry" />
        </mxCell>
        <mxCell id="hu2omngPFM__ERk7QBpw-79" value="&lt;b&gt;&lt;font style=&quot;font-size: 14px;&quot;&gt;Data Structure&lt;/font&gt;&lt;/b&gt;&lt;div&gt;&lt;font size=&quot;3&quot;&gt;&lt;br&gt;&lt;/font&gt;&lt;/div&gt;&lt;div&gt;&lt;font size=&quot;3&quot;&gt;MAX_GUESS_WORD 8 // Macro&lt;br&gt;&lt;/font&gt;&lt;/div&gt;&lt;div&gt;&lt;font size=&quot;3&quot;&gt;guess_Word&amp;nbsp;&lt;/font&gt;&lt;/div&gt;&lt;div&gt;&lt;font size=&quot;3&quot;&gt;explore_time&lt;/font&gt;&lt;/div&gt;&lt;div&gt;&lt;font size=&quot;3&quot;&gt;word&lt;/font&gt;&lt;/div&gt;" style="text;html=1;align=center;verticalAlign=middle;resizable=0;points=[];autosize=1;strokeColor=none;fillColor=none;" vertex="1" parent="1">
          <mxGeometry x="703" y="-89" width="260" height="130" as="geometry" />
        </mxCell>
        <mxCell id="hu2omngPFM__ERk7QBpw-82" style="edgeStyle=orthogonalEdgeStyle;rounded=0;orthogonalLoop=1;jettySize=auto;html=1;entryX=0.462;entryY=-0.013;entryDx=0;entryDy=0;entryPerimeter=0;" edge="1" parent="1">
          <mxGeometry relative="1" as="geometry">
            <mxPoint x="426" y="250" as="sourcePoint" />
            <mxPoint x="424.44000000000005" y="339.09000000000015" as="targetPoint" />
            <Array as="points">
              <mxPoint x="424" y="250" />
              <mxPoint x="424" y="295" />
            </Array>
          </mxGeometry>
        </mxCell>
        <mxCell id="hu2omngPFM__ERk7QBpw-85" style="edgeStyle=orthogonalEdgeStyle;rounded=0;orthogonalLoop=1;jettySize=auto;html=1;" edge="1" parent="1">
          <mxGeometry relative="1" as="geometry">
            <mxPoint x="425" y="588.6666666666665" as="sourcePoint" />
            <mxPoint x="425" y="700" as="targetPoint" />
            <Array as="points">
              <mxPoint x="425" y="630" />
              <mxPoint x="425" y="630" />
            </Array>
          </mxGeometry>
        </mxCell>
        <mxCell id="hu2omngPFM__ERk7QBpw-84" value="Guess Word?" style="rhombus;whiteSpace=wrap;html=1;" vertex="1" parent="1">
          <mxGeometry x="365" y="510" width="120" height="80" as="geometry" />
        </mxCell>
      </root>
    </mxGraphModel>
  </diagram>
</mxfile>
